<svg width="723" height="177" viewBox="0 0 723 177" fill="none" xmlns="http://www.w3.org/2000/svg">
<g clip-path="url(#clip0)">
<path d="M83.3145 62.5723C83.3145 73.9805 73.9805 83.3145 62.5723 83.3145H20.7422C9.33398 83.3145 0 73.9805 0 62.5723V20.7422C0 9.33398 9.33398 0 20.7422 0H62.5723C73.9805 0 83.3145 9.33398 83.3145 20.7422V62.5723Z" fill="#FFDB84"/>
<path d="M177.002 156.258C177.002 167.666 167.668 177 156.26 177H114.43C103.021 177 93.6875 167.666 93.6875 156.258V114.428C93.6875 103.02 103.021 93.6855 114.43 93.6855H156.26C167.668 93.6855 177.002 103.02 177.002 114.428V156.258Z" fill="#2458FF"/>
<path d="M6.09375 170.908C9.85327 174.667 15.0388 177.001 20.7429 177.001H62.573C73.9812 177.001 83.3152 167.667 83.3152 156.259V114.428C83.3152 97.2726 97.2726 83.3152 114.428 83.3152H156.259C167.667 83.3152 177.001 73.9812 177.001 62.573V20.7429C177.001 15.0388 174.667 9.85327 170.908 6.09375H165.722L6.09375 165.722V170.908Z" fill="#E84939"/>
<path d="M156.258 0H114.428C103.02 0 93.6855 9.33398 93.6855 20.7422V62.5723C93.6855 79.7281 79.7281 93.6855 62.5723 93.6855H20.7422C9.33398 93.6855 0 103.02 0 114.428V156.258C0 161.962 2.3335 167.147 6.09302 170.907L170.907 6.09302C167.147 2.3335 161.962 0 156.258 0Z" fill="#FF5341"/>
</g>
<path d="M256.062 62.002H269.686L270.301 76.2402C272.879 73.1934 275.369 70.6738 277.771 68.6816C280.174 66.6309 282.518 64.9902 284.803 63.7598C287.146 62.5293 289.52 61.6797 291.922 61.2109C294.324 60.6836 296.814 60.4199 299.393 60.4199C308.475 60.4199 315.33 63.1152 319.959 68.5059C324.646 73.8379 326.99 81.8945 326.99 92.6758V150.244H311.697V93.9062C311.697 86.9922 310.408 81.8945 307.83 78.6133C305.252 75.2734 301.414 73.6035 296.316 73.6035C294.441 73.6035 292.596 73.8965 290.779 74.4824C289.021 75.0098 287.176 75.9766 285.242 77.3828C283.309 78.7305 281.199 80.5762 278.914 82.9199C276.688 85.2637 274.168 88.1934 271.355 91.709V150.244H256.062V62.002Z" fill="white"/>
<path d="M385.086 74.6582H358.982V62.002H400.555V137.5H426.834V150.244H356.082V137.5H385.086V74.6582ZM390.447 25C392.146 25 393.729 25.3223 395.193 25.9668C396.658 26.5527 397.918 27.4023 398.973 28.5156C400.086 29.6289 400.936 30.918 401.521 32.3828C402.166 33.7891 402.488 35.3418 402.488 37.041C402.488 38.6816 402.166 40.2344 401.521 41.6992C400.936 43.1641 400.086 44.4531 398.973 45.5664C397.918 46.6797 396.658 47.5586 395.193 48.2031C393.729 48.7891 392.146 49.082 390.447 49.082C388.748 49.082 387.166 48.7891 385.701 48.2031C384.236 47.5586 382.947 46.6797 381.834 45.5664C380.779 44.4531 379.93 43.1641 379.285 41.6992C378.699 40.2344 378.406 38.6816 378.406 37.041C378.406 35.3418 378.699 33.7891 379.285 32.3828C379.93 30.918 380.779 29.6289 381.834 28.5156C382.947 27.4023 384.236 26.5527 385.701 25.9668C387.166 25.3223 388.748 25 390.447 25Z" fill="white"/>
<path d="M533.357 150.244H512.352L471.219 102.959V150.244H455.926V26.0547H471.219V102.344L510.857 62.002H531.072L489.676 102.695L533.357 150.244Z" fill="white"/>
<path d="M629.773 105.42C629.773 112.275 628.807 118.574 626.873 124.316C624.939 130 622.156 134.893 618.523 138.994C614.891 143.037 610.467 146.201 605.252 148.486C600.037 150.713 594.119 151.826 587.498 151.826C581.17 151.826 575.486 150.859 570.447 148.926C565.467 146.934 561.219 144.033 557.703 140.225C554.246 136.416 551.58 131.699 549.705 126.074C547.889 120.449 546.98 113.975 546.98 106.65C546.98 99.7949 547.947 93.5547 549.881 87.9297C551.814 82.2461 554.598 77.3828 558.23 73.3398C561.863 69.2383 566.287 66.0742 571.502 63.8477C576.717 61.5625 582.635 60.4199 589.256 60.4199C595.584 60.4199 601.238 61.416 606.219 63.4082C611.258 65.3418 615.506 68.2129 618.963 72.0215C622.479 75.7715 625.145 80.459 626.961 86.084C628.836 91.709 629.773 98.1543 629.773 105.42ZM614.129 106.123C614.129 100.674 613.514 95.9277 612.283 91.8848C611.111 87.7832 609.412 84.3848 607.186 81.6895C604.959 78.9355 602.234 76.8848 599.012 75.5371C595.848 74.1309 592.303 73.4277 588.377 73.4277C583.807 73.4277 579.881 74.3359 576.6 76.1523C573.377 77.9102 570.711 80.2832 568.602 83.2715C566.551 86.2598 565.027 89.7461 564.031 93.7305C563.094 97.6562 562.625 101.787 562.625 106.123C562.625 111.572 563.211 116.348 564.383 120.449C565.613 124.551 567.342 127.979 569.568 130.732C571.795 133.428 574.49 135.479 577.654 136.885C580.818 138.232 584.393 138.906 588.377 138.906C592.947 138.906 596.844 138.027 600.066 136.27C603.348 134.453 606.014 132.051 608.064 129.062C610.174 126.074 611.697 122.617 612.635 118.691C613.631 114.707 614.129 110.518 614.129 106.123Z" fill="white"/>
<path d="M651.922 62.002H665.545L666.16 76.2402C668.738 73.1934 671.229 70.6738 673.631 68.6816C676.033 66.6309 678.377 64.9902 680.662 63.7598C683.006 62.5293 685.379 61.6797 687.781 61.2109C690.184 60.6836 692.674 60.4199 695.252 60.4199C704.334 60.4199 711.189 63.1152 715.818 68.5059C720.506 73.8379 722.85 81.8945 722.85 92.6758V150.244H707.557V93.9062C707.557 86.9922 706.268 81.8945 703.689 78.6133C701.111 75.2734 697.273 73.6035 692.176 73.6035C690.301 73.6035 688.455 73.8965 686.639 74.4824C684.881 75.0098 683.035 75.9766 681.102 77.3828C679.168 78.7305 677.059 80.5762 674.773 82.9199C672.547 85.2637 670.027 88.1934 667.215 91.709V150.244H651.922V62.002Z" fill="white"/>
<defs>
<clipPath id="clip0">
<rect width="177" height="177" fill="white"/>
</clipPath>
</defs>
</svg>
